<svg class="mib--logo" width="150" height="57" viewBox="0 0 325 115"
                xmlns="http://www.w3.org/2000/svg">
                <g>
                <path
                style="fill:#e6b045;fill-opacity:1;fill-rule:evenodd;stroke:none"
                d="M 0,26.378906 V 24.351562 C 5.167969,12.777344 17.8125,4.441406 30.070312,0.738281 h 0.738282 c 2.523437,0.5 5.394531,2.539063 6.109375,5.347657 C 36.875,11.421875 34.78125,15.402344 33.59375,19.503906 36.761719,17.035156 44.316406,10.820312 46.484375,17.894531 45.667969,27.09375 41.308594,34.347656 38.1875,41.875 c -0.644531,1.3125 -0.542969,1.105469 0.214844,0.08594 9.617187,-11.902344 19.378906,-22.894532 32.621094,-31.078126 0.996093,0.121094 1.875,-0.558593 2.960937,-0.59375 1.464844,0.08203 2.3125,0.742188 2.699219,1.933594 l 0.511718,0.472656 c 1.050782,1.664063 0.933594,3.097657 1.023438,5.015626 -6.945312,12.5 -15.929688,23.25 -17.472656,37.59375 C 65,55.25 67.804688,51.6875 71.207031,48.703125 c 1.261719,-4.769531 4.617188,-7.859375 6,-12.902344 v -0.945312 c 1.523438,-1.941407 6.539063,-4.582031 7.285157,-1.09375 -3.433594,3.386719 -6.425782,7.351562 -8.4375,11.429687 -0.335938,0.882813 0.08594,1.375 1.140624,0.882813 5.859376,-2.632813 10.621094,-6.683594 15.597657,-11.207031 0.628906,0.05078 1.019531,0.128906 1.699219,0.496093 0.488281,0.632813 1.042968,1.265625 1.191406,2.078125 -2.269532,4.476563 -2.925782,8.777344 -4.550782,13.289063 5.34375,-0.527344 10.632818,-1.464844 16.035158,-1.378907 h 2.60547 c 5.58594,0.164063 7.46875,1.773438 8.35547,5.429688 0.0273,0.429688 0.0742,0.882812 -0.0234,1.304688 -0.84375,2.238281 -3.21484,4.449218 -5.57422,5.71875 -0.55859,-0.761719 -0.60547,-0.746094 -0.92187,-1.296876 2.5039,-2.035156 7.64453,-8.402343 1.47656,-8.464843 -3.69141,-0.324219 -7.38281,-0.113281 -11.07031,0.01953 -3.832036,0.125 -7.949224,0.546875 -11.812505,1.433594 -7.425781,19.96875 -18.808594,50.324217 -44.269531,55.347657 -2.496094,0.25 -4.960938,0.26172 -8.390625,-0.45703 C 27.921875,106.36328 18.40625,97.558594 19,87.074219 20.09375,72.789062 46.925781,63.480469 61.429688,58.296875 60.375,57.066406 59.105469,55.335938 58.699219,53.492188 c 1.402343,-14.5 9.578125,-26.078126 16.75,-38.179688 0.203125,-0.71875 0.734375,-1.402344 0.605469,-2.214844 -1.824219,-0.242187 -3.449219,0.246094 -4.847657,0.738282 C 57.726562,22.257812 45.3125,36.441406 35.523438,49.03125 c -0.574219,0.414062 -0.808594,0.738281 -1.578126,0.847656 l -0.921874,0.01953 C 32.066406,49.769531 31.738281,48.578125 31.546875,47.78125 36.371094,38.375 42.242188,28.242188 44.273438,16.972656 c -1.003907,-0.08984 -1.738282,0.105469 -2.582032,0.183594 -3.992187,2.21875 -7.96875,4.984375 -11.296875,9.003906 -4.542969,8.902344 -9.355469,17.925782 -16.402343,25.59375 -1.238282,0.585938 -2.222657,1.511719 -3.640626,1.507813 C 9.347656,52.292969 9.316406,50.984375 9.410156,49.625 13.59375,39.300781 20.863281,31.992188 28.445312,24.367188 31,18.671875 33.40625,13.222656 34.585938,6.835938 c 0.144531,-0.839844 0.02734,-1.394532 0,-2.242188 -0.125,-0.722656 -0.84375,-0.839844 -1.363282,-1.175781 -0.785156,-0.101563 -1.644531,-0.050781 -2.429687,0 C 20.21875,6.332031 10.089844,13.699219 2.753906,23.601562 2.226562,25.140625 1.726562,25.777344 1.84375,27.488281 3.175781,28.753906 6.183594,27.398438 6.394531,29.65625 4.148438,31.921875 0.5,29 0,26.378906 M 12.898438,49.117188 C 17.074219,44.523438 21.644531,37.21875 24.71875,31.546875 20.640625,35.554688 15.300781,42.898438 12.898438,49.117188 M 50.058594,105.39844 C 71.203125,98.09375 79.132812,73.039062 86.523438,54.03125 66.910156,58.824219 48.320312,63.015625 29.140625,77.660156 c -1.757813,1.703125 -3.417969,3.429688 -4.972656,5.539063 -9.523438,14.308593 13.179687,27.480471 25.890625,22.199221 M 90.65625,40.015625 c -5.738281,3.921875 -11.296875,8.78125 -18.230469,10.480469 -1.773437,2.515625 -4.324219,4.375 -6.667969,6.285156 7.257813,-2.132812 13.703126,-3.980469 21.335938,-5.230469 1.441406,-3.699219 2.886719,-7.777343 3.5625,-11.535156 z m 0,0"/>
                <path
                style="fill:#000000;fill-opacity:1;fill-rule:nonzero;stroke:none"
                d="m 132.34375,29.316406 h 5.82031 v 18.792969 h -5.82031 V 29.316406 m 10.01562,0 h 5.42188 l 7.07422,10.394532 V 29.316406 h 5.47265 v 18.792969 h -5.47265 l -7.03516,-10.320313 v 10.320313 h -5.46094 V 29.316406 m 20.80469,12.574219 5.52344,-0.34375 c 0.12109,0.894531 0.36328,1.578125 0.73047,2.046875 0.59765,0.761719 1.45312,1.140625 2.5625,1.140625 0.83203,0 1.46875,-0.191406 1.91797,-0.582031 0.44922,-0.386719 0.67187,-0.839844 0.67187,-1.351563 0,-0.488281 -0.21484,-0.921875 -0.64062,-1.308593 -0.42578,-0.382813 -1.41797,-0.746094 -2.97266,-1.089844 -2.54687,-0.570313 -4.36328,-1.332032 -5.44922,-2.28125 -1.09375,-0.945313 -1.64062,-2.15625 -1.64062,-3.625 0,-0.964844 0.28125,-1.878906 0.83984,-2.738282 0.5625,-0.859374 1.40234,-1.53125 2.52734,-2.023437 1.1211,-0.492187 2.66407,-0.738281 4.6211,-0.738281 2.39844,0 4.23047,0.445312 5.49219,1.339844 1.25781,0.894531 2.00781,2.3125 2.24609,4.261718 l -5.47266,0.320313 c -0.14453,-0.84375 -0.44922,-1.460938 -0.91406,-1.84375 -0.46484,-0.386719 -1.10937,-0.578125 -1.92969,-0.578125 -0.67578,0 -1.18359,0.144531 -1.52734,0.429687 -0.33984,0.285157 -0.51172,0.632813 -0.51172,1.042969 0,0.300781 0.14063,0.570312 0.42578,0.808594 0.26953,0.246094 0.92188,0.476562 1.94531,0.691406 2.53907,0.546875 4.35547,1.101562 5.45313,1.660156 1.10156,0.558594 1.89844,1.253906 2.39844,2.082032 0.5,0.832031 0.75,1.757812 0.75,2.78125 0,1.207031 -0.33203,2.316406 -1,3.332031 -0.66797,1.019531 -1.59766,1.789062 -2.79297,2.316406 -1.19922,0.523437 -2.70703,0.789063 -4.52735,0.789063 -3.19531,0 -5.40625,-0.617188 -6.63671,-1.847657 -1.23047,-1.230469 -1.92579,-2.792969 -2.08985,-4.691406 m 32.19141,-12.574219 h 5.79297 v 11.203125 c 0,1.109375 -0.17578,2.160157 -0.51953,3.148438 -0.34766,0.984375 -0.89063,1.847656 -1.62891,2.585937 -0.73828,0.742188 -1.51563,1.257813 -2.32813,1.558594 -1.125,0.417969 -2.48046,0.628906 -4.0625,0.628906 -0.91406,0 -1.91015,-0.06641 -2.99218,-0.191406 -1.08203,-0.128906 -1.98438,-0.382812 -2.71094,-0.765625 -0.72656,-0.378906 -1.39063,-0.917969 -1.99219,-1.621094 -0.60156,-0.699219 -1.01562,-1.421875 -1.23828,-2.164062 -0.35937,-1.195313 -0.53906,-2.257813 -0.53906,-3.179688 V 29.316406 h 5.79687 v 11.472656 c 0,1.023438 0.28125,1.828126 0.85157,2.402344 0.5664,0.578125 1.35546,0.867188 2.36328,0.867188 1,0 1.78515,-0.285156 2.35156,-0.855469 0.57031,-0.566406 0.85547,-1.371094 0.85547,-2.414063 V 29.316406 m 9.70312,18.792969 V 29.316406 h 9.67578 c 1.79688,0 3.16797,0.15625 4.11719,0.460938 0.94531,0.308594 1.71094,0.878906 2.29297,1.710937 0.58203,0.835938 0.87109,1.847657 0.87109,3.046875 0,1.042969 -0.22265,1.941406 -0.66796,2.695313 -0.44141,0.757812 -1.05469,1.371093 -1.83204,1.839843 -0.49609,0.300782 -1.17578,0.546876 -2.03906,0.746094 0.69531,0.230469 1.19922,0.460938 1.51563,0.691406 0.21093,0.152344 0.52343,0.480469 0.92578,0.984376 0.40625,0.503906 0.67969,0.894531 0.8164,1.167968 l 2.80469,5.449219 h -6.5625 L 213.875,42.367188 c -0.39063,-0.746094 -0.74219,-1.226563 -1.05078,-1.449219 -0.41797,-0.292969 -0.89063,-0.4375 -1.42188,-0.4375 h -0.51172 v 7.628906 h -5.83203 m 5.83203,-11.179687 h 2.44532 c 0.26562,0 0.78125,-0.08594 1.53906,-0.253907 0.38672,-0.07813 0.69922,-0.273437 0.94141,-0.589843 0.24609,-0.316407 0.36718,-0.679688 0.36718,-1.089844 0,-0.609375 -0.1914,-1.074219 -0.57812,-1.398438 -0.38281,-0.324218 -1.10547,-0.488281 -2.16406,-0.488281 h -2.55079 v 3.820313 m 26.06641,8.074218 h -6.61328 l -0.91016,3.105469 H 223.5 l 7.0625,-18.792969 h 6.32812 l 7.0625,18.792969 h -6.07421 l -0.92188,-3.105469 m -1.21875,-4.0625 -2.07422,-6.753906 -2.0664,6.753906 h 4.14062 m 10.10938,-11.625 h 5.42187 l 7.07422,10.394532 V 29.316406 h 5.47266 v 18.792969 h -5.47266 l -7.03516,-10.320313 v 10.320313 h -5.46093 V 29.316406 m 34.32812,11.113282 5.08594,1.539062 c -0.33985,1.425781 -0.87891,2.617188 -1.61328,3.574219 C 282.91406,46.5 282,47.222656 280.91016,47.710938 c -1.08985,0.488281 -2.47266,0.730468 -4.16016,0.730468 -2.03906,0 -3.70703,-0.296875 -5.00391,-0.890625 -1.29297,-0.59375 -2.41015,-1.640625 -3.35156,-3.132812 -0.9375,-1.496094 -1.41016,-3.410157 -1.41016,-5.742188 0,-3.113281 0.82813,-5.503906 2.48047,-7.171875 1.65235,-1.671875 3.99219,-2.507812 7.01953,-2.507812 2.36719,0 4.22657,0.480468 5.58204,1.4375 1.35156,0.957031 2.35937,2.425781 3.01562,4.40625 l -5.125,1.140625 c -0.17969,-0.570313 -0.36719,-0.988281 -0.5625,-1.253907 -0.32812,-0.445312 -0.72266,-0.785156 -1.19531,-1.027343 -0.46875,-0.238281 -0.9961,-0.359375 -1.57422,-0.359375 -1.31641,0 -2.32422,0.53125 -3.02734,1.589844 -0.52735,0.789062 -0.79297,2.023437 -0.79297,3.707031 0,2.082031 0.3164,3.511719 0.94922,4.285156 0.63281,0.773437 1.51953,1.160156 2.66406,1.160156 1.11328,0 1.95312,-0.3125 2.51953,-0.933593 0.57031,-0.625 0.98047,-1.53125 1.23828,-2.71875 m 7.89063,-11.113282 H 303.625 v 4.011719 h -9.73828 v 2.988281 h 9.03515 v 3.832032 h -9.03515 v 3.703124 h 10.01953 v 4.257813 h -15.83984 z m 0,0" />
                <path
                style="fill:#000000;fill-opacity:1;fill-rule:nonzero;stroke:none"
                d="m 132.34375,58.902344 h 10.87109 c 1.8086,0 3.20313,0.449218 4.17188,1.347656 0.96875,0.894531 1.45312,2.007812 1.45312,3.332031 0,1.109375 -0.34375,2.0625 -1.03906,2.855469 -0.46094,0.53125 -1.13672,0.949219 -2.02344,1.257812 1.35157,0.324219 2.34375,0.882813 2.98047,1.671876 0.63672,0.792968 0.95313,1.785156 0.95313,2.980468 0,0.976563 -0.22657,1.851563 -0.67969,2.628906 -0.45313,0.777344 -1.07031,1.390626 -1.85547,1.84375 -0.48828,0.28125 -1.22266,0.488282 -2.20703,0.617188 -1.30469,0.167969 -2.17188,0.253906 -2.60156,0.253906 H 132.34375 V 58.902344 m 5.85937,7.371094 h 2.52344 c 0.90625,0 1.53516,-0.15625 1.89063,-0.46875 0.35547,-0.3125 0.53125,-0.761719 0.53125,-1.351563 0,-0.546875 -0.17578,-0.972656 -0.53125,-1.28125 -0.35547,-0.308594 -0.97266,-0.460937 -1.85157,-0.460937 h -2.5625 v 3.5625 m 0,7.382812 h 2.96094 c 1,0 1.70313,-0.179688 2.11328,-0.53125 0.41016,-0.355469 0.61719,-0.832031 0.61719,-1.429688 0,-0.554687 -0.20312,-1.003906 -0.60937,-1.339843 -0.40625,-0.339844 -1.11719,-0.507813 -2.13672,-0.507813 h -2.94532 v 3.808594 m 14.6211,4.035156 V 58.902344 H 162.5 c 1.79297,0 3.16406,0.15625 4.11328,0.460937 0.94922,0.308594 1.71484,0.878907 2.29688,1.710938 0.57812,0.835937 0.87109,1.847656 0.87109,3.046875 0,1.039062 -0.22266,1.941406 -0.66797,2.695312 -0.44531,0.757813 -1.05469,1.371094 -1.83203,1.839844 -0.49609,0.300781 -1.17578,0.546875 -2.03906,0.742188 0.6914,0.234374 1.19531,0.460937 1.51172,0.695312 0.21484,0.152344 0.52343,0.480469 0.92968,0.984375 0.40625,0.503906 0.67969,0.894531 0.81641,1.167969 l 2.80469,5.445312 h -6.5625 l -3.10157,-5.742187 c -0.39062,-0.742188 -0.74218,-1.226563 -1.05078,-1.445313 -0.41797,-0.292968 -0.89453,-0.4375 -1.42187,-0.4375 h -0.51172 v 7.625 h -5.83203 m 5.83203,-11.175781 h 2.44531 c 0.26563,0 0.77735,-0.08594 1.53906,-0.253906 0.38672,-0.07813 0.69922,-0.277344 0.94141,-0.589844 0.24609,-0.316406 0.36719,-0.679687 0.36719,-1.089844 0,-0.609375 -0.19141,-1.074219 -0.57813,-1.398437 -0.38281,-0.324219 -1.10547,-0.488282 -2.16406,-0.488282 h -2.55078 v 3.820313 m 13.32812,1.792969 c 0,-3.066406 0.85547,-5.453125 2.5625,-7.164063 1.71094,-1.707031 4.08985,-2.5625 7.14063,-2.5625 3.125,0 5.53516,0.839844 7.22656,2.519531 1.69531,1.679688 2.53906,4.03125 2.53906,7.054688 0,2.195312 -0.37109,3.996094 -1.10937,5.402344 -0.73828,1.40625 -1.80469,2.5 -3.20313,3.28125 -1.39843,0.78125 -3.13671,1.171875 -5.22265,1.171875 -2.1211,0 -3.875,-0.335938 -5.26172,-1.011719 -1.39063,-0.675781 -2.51563,-1.742188 -3.37891,-3.203125 -0.86328,-1.460937 -1.29297,-3.289063 -1.29297,-5.488281 m 5.80469,0.02734 c 0,1.898437 0.35547,3.261718 1.0586,4.089843 0.70312,0.828125 1.66406,1.242188 2.8789,1.242188 1.2461,0 2.21094,-0.40625 2.89453,-1.21875 0.6836,-0.808594 1.02735,-2.265625 1.02735,-4.371094 0,-1.765625 -0.35938,-3.058594 -1.07032,-3.875 -0.71484,-0.816406 -1.68359,-1.222656 -2.90625,-1.222656 -1.16796,0 -2.10937,0.414062 -2.8164,1.242187 -0.71094,0.828125 -1.06641,2.199219 -1.06641,4.113282 m 16.80469,-9.433594 h 5.80859 v 7.101562 l 6.08985,-7.101562 h 7.71484 l -6.84375,7.089844 7.15234,11.699218 h -7.15234 l -3.96094,-7.726562 -3,3.140625 v 4.585937 h -5.80859 V 58.902344 m 21.82031,0 h 15.5586 v 4.011718 h -9.74219 v 2.988282 h 9.03906 v 3.832031 h -9.03906 V 73.4375 h 10.02344 v 4.253906 H 216.41406 V 58.902344 m 19.03906,18.789062 V 58.902344 h 9.67579 c 1.79296,0 3.16406,0.15625 4.11328,0.460937 0.94922,0.308594 1.71484,0.878907 2.29687,1.710938 0.57813,0.835937 0.8711,1.847656 0.8711,3.046875 0,1.039062 -0.22266,1.941406 -0.66797,2.695312 -0.44532,0.757813 -1.05469,1.371094 -1.83203,1.839844 -0.4961,0.300781 -1.17579,0.546875 -2.03907,0.742188 0.69141,0.234374 1.19532,0.460937 1.51172,0.695312 0.21485,0.152344 0.52344,0.480469 0.92969,0.984375 0.40625,0.503906 0.67969,0.894531 0.81641,1.167969 l 2.80468,5.445312 h -6.5625 l -3.10156,-5.742187 c -0.39062,-0.742188 -0.74219,-1.226563 -1.05078,-1.445313 -0.41797,-0.292968 -0.89453,-0.4375 -1.42188,-0.4375 h -0.51171 v 7.625 h -5.83204 m 5.83204,-11.175781 h 2.44531 c 0.26562,0 0.77734,-0.08594 1.53906,-0.253906 0.38672,-0.07813 0.69922,-0.277344 0.94141,-0.589844 0.24609,-0.316406 0.36718,-0.679687 0.36718,-1.089844 0,-0.609375 -0.1914,-1.074219 -0.57812,-1.398437 -0.38281,-0.324219 -1.10547,-0.488282 -2.16406,-0.488282 h -2.55078 z m 0,0"
                id="path6" />
                </g>
            </svg>